PathFileType	4	(X/Y/Z)	C:/Users/beibeiliu/ov580/test_trc/User2\sequence.10_training_dense_right.trc
DataRate	CameraRate	NumFrames	NumMarkers	Units	OrigDataRate	OrigDataStartFrame	OrigNumFrames
120	120	18	19	mm	120	1	122
Frame#	Time	ThumbCMC			ThumbMCP			ThumbIP			ThumbTip			IndexMCP			IndexPIP			IndexTip			MiddleMCP			MiddlePIP			MiddleTip			RingMCP			RingPIP			RingTip			PinkyMCP			PinkyPIP			PinkyTip			BackHand1			BackHand2			BackHand3	
		X0	Y0	Z0	X1	Y1	Z1	X2	Y2	Z2	X3	Y3	Z3	X4	Y4	Z4	X5	Y5	Z5	X6	Y6	Z6	X7	Y7	Z7	X8	Y8	Z8	X9	Y9	Z9	X10	Y10	Z10	X11	Y11	Z11	X12	Y12	Z12	X13	Y13	Z13	X14	Y14	Z14	X15	Y15	Z15	X16	Y16	Z16	X17	Y17	Z17	X18	Y18	Z18	
0	0	69.9073	10.6982	-13.205	49.7564	-4.04906	-45.5292	44.4453	-12.5024	-80.5527	43.5986	-19.5484	-104.056	70.0427	36.9651	-86.2509	64.2922	4.05697	-98.8301	69.1353	-21.0473	-79.943	99.8654	54.1655	-93.2986	87.3567	56.6402	-122.606	81.6792	56.3977	-154.537	125.9	46.6883	-89.6492	126.191	56.3061	-115.684	127.585	66.8556	-142.609	145.096	25.4757	-79.2018	155.233	34.0009	-101.253	165.578	44.2979	-116.659	131.726	31.048	-36.2525	136.175	25.8967	-2.28515	101.798	40.0583	-12.2489	
1	0.00833333	61.2553	15.1318	-12.0133	43.5847	-2.71077	-34.5631	33.4928	-14.4853	-70.5713	25.4141	-26.2329	-89.9288	59.9513	30.8385	-82.6297	47.9938	-1.77598	-91.5128	60.1345	-25.1237	-67.0683	86.8728	44.1218	-92.453	73.6271	42.9888	-126.242	67.355	40.9617	-155.303	113.268	37.2494	-93.2367	118.39	38.6777	-116.737	113.165	48.8772	-146.032	133.16	13.8689	-79.2791	143.639	19.8458	-104.287	150.019	29.7813	-124.512	123.931	25.8365	-37.1586	130.938	24.111	-3.9409	96.5976	42.4391	-15.3192	
2	0.0166667	60.737	26.8479	-1.59613	39.4192	8.876	-27.7089	21.7778	-5.04144	-57.3154	14.6795	-16.8958	-76.2959	55.6494	32.8908	-79.1545	37.1644	5.96384	-82.9101	46.8934	-19.1581	-58.8977	81.1204	39.6552	-97.2438	67.1949	36.5837	-124.064	58.1259	31.5625	-153.919	110.112	26.7504	-93.6078	107.054	28.1384	-117.179	104.099	31.3509	-147.246	125.759	5.93173	-79.6925	132.211	3.58903	-103.084	138.545	9.55323	-123.296	122.737	23.274	-39.2929	134.34	24.1899	-8.91306	102.191	46.1697	-15.8016	
3	0.025	68.023	46.9714	-1.85931	39.148	33.1196	-17.5138	17.0987	19.4583	-46.597	1.71567	7.68466	-62.1639	56.803	46.2794	-74.0764	31.0072	19.5966	-71.2191	37.0773	-2.74467	-46.7356	84.8685	37.6404	-96.3375	65.7796	34.6145	-123.679	52.5581	29.2661	-148.202	105.046	22.2795	-94.909	100.728	18.7645	-120.803	93.3351	19.6002	-146.736	116.207	-2.12401	-76.4713	117.76	-8.33828	-98.9974	125.599	-9.1162	-125.883	123.052	24.21	-40.0478	136.535	22.0124	-7.99519	108.797	53.8843	-21.5609	
4	0.0333333	81.8706	66.9182	-2.80153	49.4368	59.5147	-13.4505	19.8483	53.1241	-35.3967	-0.0192774	43.8676	-49.8288	60.0572	59.0596	-73.1271	30.9118	47.5867	-64.9655	29.8248	24.7833	-37.7322	84.834	45.6627	-90.9838	60.752	43.7486	-118.715	45.5474	41.9901	-140.249	97.5856	20.1395	-87.7507	87.5211	17.9963	-117.528	80.1001	15.9366	-143.925	102.614	-5.93649	-69.343	100.689	-13.9639	-98.1714	101.601	-20.6113	-121.056	122.561	21.0397	-37.0976	140.351	16.7062	-10.5312	123.551	51.3748	-22.2015	
5	0.0416667	97.7965	79.3233	-4.73638	65.0584	80.6358	-11.8118	34.7853	83.9205	-25.8816	11.2896	81.7461	-39.0311	69.4979	77.3887	-69.2099	37.4628	69.651	-60.3902	27.4442	60.0858	-27.5182	84.7987	50.1486	-90.0422	61.7181	53.2791	-113.237	42.5089	57.929	-133.38	88.7015	25.29	-88.0342	77.5126	19.3379	-110.075	65.3831	22.5218	-134.132	87.5188	-2.37128	-67.288	79.9007	-7.79694	-87.8312	77.6216	-20.9146	-113.258	116.846	17.4899	-38.8559	135.111	16.6308	-12.8957	129.342	51.563	-28.4268	
6	0.05	114.09	84.0267	-6.12593	83.376	100.353	-11.061	51.8382	113.024	-26.2454	28.0857	115.425	-35.3282	79.9665	87.687	-69.6443	49.0374	96.7157	-56.9508	35.3497	84.7032	-28.6719	86.1211	59.9882	-89.6793	62.6329	67.6284	-110.042	41.0712	73.9645	-130.651	81.6905	28.2278	-84.5835	67.3174	27.4731	-105.481	53.7586	30.0069	-128.577	75.7461	10.4545	-59.9426	60.478	-1.00747	-81.2066	53.0827	-10.4773	-104.133	115.437	22.5359	-35.8768	133.226	17.2442	-10.9994	134.871	51.748	-29.9254	
7	0.0583333	131.129	85.423	-6.14377	102.493	107.921	-14.0123	75.0471	126.557	-27.0645	50.7738	135.029	-37.8754	91.9627	95.8296	-71.8313	62.5014	108.881	-57.0332	51.0392	107.31	-24.816	84.6613	64.0657	-89.2453	63.8325	77.739	-108.582	40.3765	86.7838	-130.222	74.4353	35.5519	-81.1251	58.5106	36.9643	-101.732	47.1603	44.6626	-123.846	67.6257	20.8074	-53.5449	50.2862	16.1465	-71.737	37.4003	4.12402	-91.954	109.84	24.405	-39.0119	129.929	13.5957	-9.67599	141.085	47.6287	-30.5076	
8	0.0666667	139.356	80.0812	-14.2593	121.182	109.871	-18.5488	98.5777	131.388	-30.8323	77.1063	146.905	-40.0463	100.799	96.4357	-74.4127	80.6199	119.273	-61.0879	71.6303	119.092	-30.1054	86.4987	66.0061	-87.7409	65.9214	85.2917	-108.605	51.104	97.0776	-124.105	74.8163	43.8526	-75.2441	57.2028	48.9994	-95.3321	40.2652	54.8943	-120.926	60.6107	31.0294	-49.0214	41.6902	31.182	-67.4597	25.3931	22.2794	-79.9771	102.157	22.9793	-34.2075	119.535	11.5355	-9.44106	138.6	38.9774	-30.3478	
9	0.075	153.529	74.6186	-16.2172	136.199	107.744	-25.3596	119.025	132.798	-39.2406	99.2287	150.356	-50.7001	109.725	92.639	-79.6057	99.9406	120.186	-68.5532	93.3427	121.952	-31.5674	92.6561	68.1932	-92.3674	74.1625	87.0532	-111.569	61.1946	101.076	-128.856	74.7042	47.5515	-74.3717	59.6474	55.1572	-95.0882	44.4878	62.2508	-119.412	58.6566	39.4243	-45.8912	40.8579	41.5537	-63.803	26.0655	36.5501	-80.7571	104.361	29.0137	-31.0551	114.949	13.5427	-8.29457	138.07	31.1326	-31.138	
10	0.0833333	156.572	67.3943	-22.6853	147.277	103.709	-35.0503	132.091	131.242	-49.4322	112.992	146.935	-60.6926	122.257	84.1891	-85.6303	110.608	117.604	-73.5202	103.596	118.673	-41.5929	97.5212	62.1137	-95.5552	82.6571	78.4658	-115.711	69.6653	96.6343	-136.255	76.5458	45.6865	-80.7085	63.9231	52.1194	-100.219	50.9073	60.0249	-124.444	61.3604	42.2126	-49.1029	44.9828	44.7097	-67.8365	27.0953	38.8927	-86.5152	106.644	26.4758	-31.891	118.009	10.1878	-7.11614	140.496	28.3818	-32.0224	
11	0.0916667	163.559	61.9425	-22.4519	150.606	92.6487	-37.9544	136.621	122.897	-60.0237	122.451	141.351	-72.4972	129.593	78.2936	-91.7021	116.165	108.309	-82.2542	114.005	111.437	-46.845	108.176	52.4963	-98.91	92.2447	69.8242	-124.573	82.5719	86.1886	-146.837	83.9022	37.7098	-85.5175	70.0755	43.5257	-105.853	58.9456	51.9773	-133.926	68.3474	37.9164	-60.3791	47.9872	37.9738	-76.0729	31.8947	33.9561	-91.1597	106.191	21.7737	-39.039	119.769	7.81538	-10.248	146.097	24.5428	-38.8074	
12	0.1	167.449	56.3118	-27.9845	153.676	85.2271	-45.1628	141.952	110.708	-64.9613	128.985	127.923	-80.6706	134.936	67.5423	-100.1	120.757	95.9237	-91.7631	119.852	103.428	-60.5776	113.666	40.3138	-108.827	97.2533	55.4569	-133.238	87.7831	69.04	-155.178	90.3481	26.287	-92.2097	74.2907	29.953	-114.739	68.3857	36.2549	-141.396	71.1619	26.2105	-64.3483	55.2975	27.4945	-82.7401	39.8076	22.8627	-100.343	112.56	11.5141	-42.0644	122.289	2.45159	-12.607	151.104	13.5785	-37.6983	
13	0.108333	165.258	48.1166	-33.2449	154.625	77.6071	-52.6612	142.059	97.8554	-76.2082	130.618	114.601	-91.3964	138.429	50.0822	-103.566	123.602	80.9372	-101.775	119.184	91.0724	-65.7239	117.638	21.5344	-108.364	107.17	34.3984	-136.648	95.168	47.8924	-165.51	94.5819	10.7678	-96.728	88.3933	14.7231	-119.722	76.5666	16.8744	-143.338	77.3178	13.0961	-66.1378	59.5281	11.5813	-89.1562	50.0792	6.63288	-105.596	118.909	2.36697	-41.3078	126.475	-5.1445	-14.942	156.833	6.07705	-38.6812	
14	0.116667	168.839	45.6323	-37.7291	157.199	72.6407	-59.2755	141.813	87.3459	-86.3447	126.059	98.3172	-109.155	146.915	39.8308	-111.313	126.484	66.3165	-109.489	118.199	79.6945	-80.8753	131.749	8.04987	-113.631	118.036	14.1418	-140.38	108.201	23.6939	-170.731	105.791	-6.39302	-98.5925	97.201	-6.90601	-126.321	90.13	-5.65911	-153.214	87.9493	-2.88552	-72.3317	71.2626	-9.37057	-90.7439	60.6153	-18.6089	-113.758	124.003	-8.30379	-43.2267	136.762	-11.1006	-13.8053	161.972	2.41107	-41.6782	
15	0.125	169.548	46.5519	-41.487	151.432	66.1475	-65.1477	137.649	79.177	-94.0333	121.291	83.0546	-114.933	155.188	29.9851	-113.056	131.056	54.1404	-117.376	112.825	69.1963	-95.813	143.557	-5.14964	-116.257	134.979	-0.166817	-146.694	125.762	2.26031	-172.526	125.345	-19.9267	-102.51	113.719	-26.4871	-123.261	108.434	-28.5666	-153.445	101.446	-21.447	-76.1847	89.058	-30.3559	-96.66	82.8716	-42.1213	-117.892	135.01	-17.9928	-41.7903	142.362	-16.9579	-13.9324	170.2	2.09512	-36.5996	
16	0.133333	161.516	49.9567	-38.8111	143.507	67.2382	-68.3272	127.456	70.6947	-99.8194	112.867	73.5301	-121.438	159.323	31.4778	-112.017	133.968	48.89	-120.813	103.035	57.3062	-107.72	159.517	-5.93902	-111.752	150.886	-4.02873	-142.794	140.08	-7.54286	-170.624	142.191	-23.3071	-98.0919	136.105	-31.1814	-127.709	134.378	-35.5911	-155.841	118.217	-30.4143	-76.1692	112.212	-42.2815	-103.773	110.967	-55.4872	-123.58	147.877	-17.6212	-40.3903	150.633	-14.2891	-8.80221	173.82	8.97166	-32.3592	
17	0.141667	150.133	61.378	-36.0484	127.903	67.5798	-66.3578	112.857	74.4651	-95.3717	101.107	73.4635	-116.872	157.67	43.3417	-107.361	129.555	51.0488	-118.597	99.4647	51.9748	-112.911	169.07	9.117	-111.733	163.409	11.0349	-143.239	160.647	12.4187	-170.907	161.09	-12.178	-101.211	157.824	-21.2311	-129.82	160.575	-19.9907	-154.635	140.92	-27.5785	-83.142	139.815	-39.1964	-107.671	143.701	-52.2647	-124.057	158.191	-10.5727	-39.4744	156.835	-6.52273	-5.7098	174.924	26.3357	-27.9691	
